<?xml version="1.0" encoding="utf-8"?>
<!-- Generator: Adobe Illustrator 22.0.0, SVG Export Plug-In . SVG Version: 6.00 Build 0)  -->
<svg version="1.1" id="Layer_1" xmlns="http://www.w3.org/2000/svg" xmlns:xlink="http://www.w3.org/1999/xlink" x="0px" y="0px"
	 viewBox="0 0 122.1 18" style="enable-background:new 0 0 122.1 18;" xml:space="preserve">
<style type="text/css">
	.st0{fill:#05226D;}
	.st1{fill:#FFFFFF;}
</style>
<path class="st0" d="M112.6,18.1H9c-4.9,0-9-4-9-9v0c0-4.9,4-9,9-9h103.6c4.9,0,9,4,9,9v0C121.6,14.1,117.6,18.1,112.6,18.1z"/>
<g>
	<path class="st1" d="M31.2,11.1h-2.8L27.8,13h-1l2.7-7.4h0.9l2.6,7.4h-1L31.2,11.1z M28.7,10.3h2.2l-1.1-3.2h0L28.7,10.3z"/>
	<path class="st1" d="M33.6,10.4c0-0.9,0.2-1.6,0.6-2.1c0.4-0.5,0.9-0.8,1.6-0.8c0.3,0,0.6,0.1,0.9,0.2c0.2,0.1,0.5,0.3,0.6,0.5v-3
		h1V13h-0.8l-0.2-0.7c-0.2,0.3-0.4,0.5-0.7,0.6c-0.3,0.1-0.6,0.2-0.9,0.2c-0.7,0-1.2-0.2-1.6-0.7s-0.6-1.1-0.6-1.9V10.4z M34.6,10.5
		c0,0.6,0.1,1,0.3,1.3s0.6,0.5,1.1,0.5c0.3,0,0.5-0.1,0.8-0.2s0.4-0.3,0.5-0.6V9c-0.1-0.2-0.3-0.4-0.5-0.5c-0.2-0.1-0.5-0.2-0.7-0.2
		c-0.5,0-0.8,0.2-1.1,0.6s-0.3,0.9-0.3,1.5V10.5z"/>
	<path class="st1" d="M39.5,10.4c0-0.9,0.2-1.6,0.6-2.1c0.4-0.5,0.9-0.8,1.6-0.8c0.3,0,0.6,0.1,0.9,0.2c0.2,0.1,0.5,0.3,0.6,0.5v-3
		h1V13h-0.8l-0.2-0.7c-0.2,0.3-0.4,0.5-0.7,0.6c-0.3,0.1-0.6,0.2-0.9,0.2c-0.7,0-1.2-0.2-1.6-0.7s-0.6-1.1-0.6-1.9V10.4z M40.5,10.5
		c0,0.6,0.1,1,0.3,1.3s0.6,0.5,1.1,0.5c0.3,0,0.5-0.1,0.8-0.2s0.4-0.3,0.5-0.6V9c-0.1-0.2-0.3-0.4-0.5-0.5c-0.2-0.1-0.5-0.2-0.7-0.2
		c-0.5,0-0.8,0.2-1.1,0.6s-0.3,0.9-0.3,1.5V10.5z"/>
	<path class="st1" d="M53.6,10.7L53.6,10.7c0,0.7-0.2,1.3-0.7,1.8c-0.5,0.5-1.2,0.7-2,0.7c-0.8,0-1.5-0.3-2-0.9s-0.8-1.3-0.8-2.3
		V8.7c0-0.9,0.3-1.7,0.8-2.3c0.5-0.6,1.2-0.9,2-0.9c0.8,0,1.5,0.2,2,0.7c0.5,0.4,0.7,1,0.7,1.8l0,0h-1c0-0.5-0.2-0.9-0.5-1.2
		c-0.3-0.3-0.7-0.5-1.3-0.5c-0.6,0-1,0.2-1.3,0.7c-0.3,0.5-0.5,1-0.5,1.7V10c0,0.7,0.2,1.2,0.5,1.7s0.8,0.7,1.3,0.7
		c0.6,0,1-0.1,1.3-0.4c0.3-0.3,0.5-0.7,0.5-1.2H53.6z"/>
	<path class="st1" d="M54.6,10.2c0-0.8,0.2-1.5,0.7-2c0.4-0.5,1-0.8,1.8-0.8c0.8,0,1.4,0.3,1.8,0.8s0.7,1.2,0.7,2v0.1
		c0,0.8-0.2,1.5-0.7,2s-1,0.8-1.8,0.8s-1.4-0.3-1.8-0.8c-0.4-0.5-0.7-1.2-0.7-2V10.2z M55.6,10.3c0,0.6,0.1,1.1,0.4,1.4
		c0.2,0.4,0.6,0.6,1.1,0.6c0.5,0,0.8-0.2,1.1-0.6s0.4-0.9,0.4-1.4v-0.1c0-0.6-0.1-1.1-0.4-1.4c-0.2-0.4-0.6-0.6-1.1-0.6
		c-0.5,0-0.8,0.2-1.1,0.6c-0.2,0.4-0.4,0.9-0.4,1.4V10.3z"/>
	<path class="st1" d="M64.2,12.2c-0.2,0.3-0.4,0.5-0.7,0.7s-0.6,0.2-0.9,0.2c-0.6,0-1.1-0.2-1.4-0.6s-0.5-1-0.5-1.8V7.5h1v3.2
		c0,0.6,0.1,1,0.3,1.2c0.2,0.2,0.4,0.3,0.8,0.3c0.4,0,0.6-0.1,0.9-0.2c0.2-0.1,0.4-0.3,0.5-0.6v-4h1V13h-0.9L64.2,12.2z"/>
	<path class="st1" d="M67.5,7.5l0.1,0.8c0.2-0.3,0.4-0.5,0.7-0.7s0.6-0.2,0.9-0.2c0.6,0,1.1,0.2,1.4,0.5c0.3,0.3,0.5,0.9,0.5,1.6V13
		h-1V9.6c0-0.5-0.1-0.8-0.3-1c-0.2-0.2-0.5-0.3-0.9-0.3c-0.3,0-0.6,0.1-0.8,0.2c-0.2,0.1-0.4,0.3-0.5,0.5V13h-1V7.5H67.5z"/>
	<path class="st1" d="M73.9,6.2v1.3h1v0.7h-1v3.3c0,0.3,0.1,0.4,0.2,0.5c0.1,0.1,0.2,0.2,0.4,0.2c0.1,0,0.1,0,0.2,0
		c0.1,0,0.1,0,0.2,0l0.1,0.7c-0.1,0.1-0.2,0.1-0.3,0.1s-0.3,0.1-0.4,0.1c-0.4,0-0.7-0.1-1-0.4c-0.2-0.2-0.4-0.6-0.4-1.2V8.3H72V7.5
		h0.9V6.2H73.9z"/>
	<path class="st1" d="M78.3,13.1c-0.8,0-1.4-0.3-1.8-0.8s-0.7-1.2-0.7-2v-0.2c0-0.8,0.2-1.4,0.7-2c0.5-0.5,1-0.8,1.7-0.8
		c0.7,0,1.3,0.2,1.7,0.7c0.4,0.5,0.6,1.1,0.6,1.8v0.5h-3.5l0,0c0,0.6,0.1,1,0.4,1.3c0.2,0.3,0.6,0.5,1.1,0.5c0.3,0,0.6,0,0.9-0.1
		c0.3-0.1,0.5-0.2,0.7-0.4l0.4,0.6c-0.2,0.2-0.5,0.3-0.8,0.5C79.1,13.1,78.7,13.1,78.3,13.1z M78.1,8.2c-0.3,0-0.6,0.1-0.9,0.4
		c-0.2,0.3-0.4,0.6-0.4,1l0,0h2.5V9.6c0-0.4-0.1-0.7-0.3-1C78.8,8.3,78.5,8.2,78.1,8.2z"/>
	<path class="st1" d="M84.1,8.4l-0.5,0c-0.3,0-0.5,0.1-0.7,0.2c-0.2,0.1-0.3,0.3-0.4,0.5V13h-1V7.5h0.9l0.1,0.8
		C82.6,8,82.8,7.8,83,7.7s0.5-0.2,0.8-0.2c0.1,0,0.1,0,0.2,0s0.1,0,0.2,0L84.1,8.4z"/>
	<path class="st1" d="M87.8,13V5.6h2.3c1,0,1.7,0.3,2.3,0.9c0.6,0.6,0.9,1.4,0.9,2.3v1c0,0.9-0.3,1.7-0.9,2.3
		c-0.6,0.6-1.4,0.9-2.3,0.9H87.8z M88.8,6.4v5.8h1.3c0.7,0,1.2-0.2,1.6-0.7c0.4-0.5,0.6-1,0.6-1.7v-1c0-0.7-0.2-1.3-0.6-1.7
		c-0.4-0.5-0.9-0.7-1.6-0.7H88.8z"/>
	<path class="st1" d="M97,13.1c-0.8,0-1.4-0.3-1.8-0.8s-0.7-1.2-0.7-2v-0.2c0-0.8,0.2-1.4,0.7-2c0.5-0.5,1-0.8,1.7-0.8
		c0.7,0,1.3,0.2,1.7,0.7C98.8,8.6,99,9.2,99,9.9v0.5h-3.5l0,0c0,0.6,0.1,1,0.4,1.3c0.2,0.3,0.6,0.5,1.1,0.5c0.3,0,0.6,0,0.9-0.1
		c0.3-0.1,0.5-0.2,0.7-0.4l0.4,0.6c-0.2,0.2-0.5,0.3-0.8,0.5C97.8,13.1,97.4,13.1,97,13.1z M96.8,8.2c-0.3,0-0.6,0.1-0.9,0.4
		c-0.2,0.3-0.4,0.6-0.4,1l0,0H98V9.6c0-0.4-0.1-0.7-0.3-1C97.5,8.3,97.2,8.2,96.8,8.2z"/>
	<path class="st1" d="M101.5,6.2v1.3h1v0.7h-1v3.3c0,0.3,0.1,0.4,0.2,0.5c0.1,0.1,0.2,0.2,0.4,0.2c0.1,0,0.1,0,0.2,0
		c0.1,0,0.1,0,0.2,0l0.1,0.7c-0.1,0.1-0.2,0.1-0.3,0.1s-0.3,0.1-0.4,0.1c-0.4,0-0.7-0.1-1-0.4c-0.2-0.2-0.4-0.6-0.4-1.2V8.3h-0.9
		V7.5h0.9V6.2H101.5z"/>
	<path class="st1" d="M107,13c0-0.2-0.1-0.3-0.1-0.4c0-0.1,0-0.3,0-0.4c-0.2,0.3-0.4,0.5-0.7,0.7c-0.3,0.2-0.6,0.3-1,0.3
		c-0.6,0-1-0.1-1.3-0.4c-0.3-0.3-0.4-0.7-0.4-1.2c0-0.5,0.2-0.9,0.6-1.2c0.4-0.3,1-0.4,1.7-0.4h1.1V9.3c0-0.3-0.1-0.6-0.3-0.8
		c-0.2-0.2-0.5-0.3-0.8-0.3c-0.3,0-0.6,0.1-0.8,0.2s-0.3,0.4-0.3,0.6l-0.9,0l0,0c0-0.4,0.2-0.8,0.6-1.1s0.9-0.5,1.5-0.5
		c0.6,0,1.1,0.2,1.5,0.5c0.4,0.3,0.6,0.8,0.6,1.4v2.6c0,0.2,0,0.4,0,0.6c0,0.2,0.1,0.4,0.1,0.5H107z M105.4,12.3
		c0.4,0,0.7-0.1,1-0.3c0.3-0.2,0.5-0.4,0.6-0.6v-0.9h-1.1c-0.4,0-0.7,0.1-1,0.3c-0.2,0.2-0.4,0.4-0.4,0.7c0,0.2,0.1,0.4,0.2,0.6
		C104.8,12.2,105.1,12.3,105.4,12.3z"/>
	<path class="st1" d="M110.5,6.1h-1v-1h1V6.1z M110.5,13h-1V7.5h1V13z"/>
	<path class="st1" d="M113.1,13h-1V5.1h1V13z"/>
</g>
<path class="st1" d="M18.1,2.8C16.6,2,14.7,2,14.7,2c-4,0-7.2,3.2-7.1,7.2c0.1,3.8,3.2,6.9,7,7c3.7,0.1,6.7-2.7,7.2-6.2
	c0.1-0.5-0.3-0.9-0.8-0.9h0c-0.4,0-0.7,0.3-0.7,0.6c-0.4,3.1-3.3,5.5-6.7,4.9c-2.1-0.4-3.9-2.1-4.4-4.2c-0.8-3.7,1.9-6.9,5.5-6.9
	c0.9,0,1.8,0.2,2.6,0.6C17.6,4.3,18,4.2,18.3,4l0,0C18.6,3.6,18.5,3,18.1,2.8z"/>
<path class="st1" d="M14.8,13.1L14.8,13.1c-0.4,0-0.8-0.4-0.8-0.8V5.9c0-0.4,0.4-0.8,0.8-0.8h0c0.4,0,0.8,0.4,0.8,0.8v6.4
	C15.6,12.8,15.2,13.1,14.8,13.1z"/>
<path class="st1" d="M18,9.9h-6.5c-0.4,0-0.8-0.4-0.8-0.8v0c0-0.4,0.4-0.8,0.8-0.8H18c0.4,0,0.8,0.4,0.8,0.8v0
	C18.8,9.5,18.5,9.9,18,9.9z"/>
</svg>
