<?xml version="1.0" encoding="utf-8"?>
<!-- Generator: Adobe Illustrator 22.0.0, SVG Export Plug-In . SVG Version: 6.00 Build 0)  -->
<svg version="1.1" id="Layer_1" xmlns="http://www.w3.org/2000/svg" xmlns:xlink="http://www.w3.org/1999/xlink" x="0px" y="0px"
	 viewBox="0 0 216 216" style="enable-background:new 0 0 216 216;" xml:space="preserve">
<style type="text/css">
	.st0{fill:#05226D;}
</style>
<path class="st0" d="M108,0.8C48.8,0.8,0.8,48.8,0.8,108c0,59.2,48,107.3,107.3,107.3s107.3-48,107.3-107.3
	C215.3,48.8,167.2,0.8,108,0.8z M154.5,115.2c-1.9,1.9-4.4,3-7.2,3h-29.5v29c0,5.4-4.4,9.8-9.8,9.8s-9.8-4.4-9.8-9.8v-29H68.8
	c-5.6,0-10.3-4.6-10.3-10.3c0-2.8,1.2-5.4,3-7.2c1.9-1.9,4.4-3,7.2-3h29.5v-29c0-5.4,4.4-9.8,9.8-9.8c2.7,0,5.1,1.1,6.9,2.9
	c1.8,1.8,2.9,4.2,2.9,6.9v29h29.5c5.6,0,10.3,4.6,10.3,10.3C157.5,110.8,156.3,113.4,154.5,115.2z"/>
</svg>
