<?xml version="1.0" encoding="utf-8"?>
<!-- Generator: Adobe Illustrator 22.0.0, SVG Export Plug-In . SVG Version: 6.00 Build 0)  -->
<svg version="1.1" id="Layer_1" xmlns="http://www.w3.org/2000/svg" xmlns:xlink="http://www.w3.org/1999/xlink" x="0px" y="0px"
	 viewBox="0 0 216 216" style="enable-background:new 0 0 216 216;" xml:space="preserve">
<style type="text/css">
	.st0{fill:#05226D;}
</style>
<path class="st0" d="M184.2,63.5H31.7c-9.8,0-17.8-8-17.8-17.8v-2C14,34,21.9,26,31.7,26h152.5c9.8,0,17.8,8,17.8,17.8v2
	C202,55.5,194,63.5,184.2,63.5z M31.7,38c-3.2,0-5.8,2.6-5.8,5.8v2c0,3.2,2.6,5.8,5.8,5.8h152.5c3.2,0,5.8-2.6,5.8-5.8v-2
	c0-3.2-2.6-5.8-5.8-5.8H31.7z"/>
<path class="st0" d="M77.8,190l-1.2,0.1c-3.1,0.2-5.8-2.2-6-5.2L63.7,81.6c-0.2-3.1,2.2-5.8,5.2-6l1.2-0.1c3.1-0.2,5.8,2.2,6,5.2
	L83,184C83.2,187.1,80.9,189.8,77.8,190z"/>
<path class="st0" d="M140,190.1l-1.2-0.1c-3.1-0.2-5.5-2.9-5.3-6l6.2-103.2c0.2-3.1,2.9-5.5,6-5.3l1.2,0.1c3.1,0.2,5.5,2.9,5.3,6
	L146,184.8C145.8,187.9,143.1,190.3,140,190.1z"/>
<path class="st0" d="M108.4,190.1h-1.2c-3.1,0-5.6-2.5-5.6-5.6l0-103.4c0-3.1,2.5-5.6,5.6-5.6h1.2c3.1,0,5.6,2.5,5.6,5.6l0,103.4
	C114,187.6,111.5,190.1,108.4,190.1z"/>
<path class="st0" d="M152,38H64V20.4C64,9.2,73.1,0,84.4,0h47.2C142.8,0,152,9.2,152,20.4V38z M76,26h64v-5.6c0-4.6-3.8-8.4-8.4-8.4
	H84.4c-4.6,0-8.4,3.8-8.4,8.4V26z"/>
<path class="st0" d="M60.3,216.3c-9.5,0-17.5-7.2-18.5-16.7L26,51.5h163.9l-13.5,147.6c-0.9,9.6-8.8,16.9-18.5,17L60.3,216.3
	C60.3,216.3,60.3,216.3,60.3,216.3z M39.3,63.5l14.4,134.9c0.4,3.4,3.2,6,6.6,6c0,0,0,0,0,0l97.5-0.3c3.4,0,6.2-2.6,6.5-6
	l12.3-134.5H39.3z"/>
</svg>
