<?xml version="1.0" encoding="utf-8"?>
<!-- Generator: Adobe Illustrator 22.0.0, SVG Export Plug-In . SVG Version: 6.00 Build 0)  -->
<svg version="1.1" id="Layer_1" xmlns="http://www.w3.org/2000/svg" xmlns:xlink="http://www.w3.org/1999/xlink" x="0px" y="0px"
	 viewBox="0 0 216 216" style="enable-background:new 0 0 216 216;" xml:space="preserve">
<style type="text/css">
	.st0{fill:#05226D;}
</style>
<g>
	<path class="st0" d="M33.7,67.5v32h75.6v-32H33.7z M58.1,91.8l-3.6-5.3l-3.1,5.3h-5.9l6.1-9.5l-6.3-9.1h6.1l3.5,5.1l3-5.1h5.9
		l-6,9.4l6.4,9.3H58.1z M78.5,91.8h-11V73.2h5.2v14.7h5.8V91.8z M89.1,92c-4.1,0-7.4-2-7.6-6H87c0.1,1.4,0.9,1.9,1.9,1.9
		c0.9,0,1.6-0.5,1.6-1.3c0-3-9.1-1.6-9-8.1c0-3.6,3-5.6,7-5.6c4.3,0,7.1,2.1,7.3,5.8h-5.6c-0.1-1.2-0.8-1.7-1.7-1.7
		c-0.8,0-1.4,0.4-1.4,1.3c0,2.8,9,1.9,9,7.9C96.1,89.4,93.5,92,89.1,92z"/>
	<g>
		<path class="st0" d="M137.7,4.2H49.2c-10.6,0-19.3,8.7-19.3,19.3v35.2H48V25.8c0-1.9,1.6-3.5,3.5-3.5h74.4v29.2
			c0,9.2,7.5,16.7,16.7,16.7h25v122.9c0,0.5-0.4,1-1,1h-30.4l-16.5,18.1h48.7c9.5,0,17.3-7.8,17.3-17.3V54.5L137.7,4.2z M146.4,51.5
			c-2.1,0-3.7-1.7-3.7-3.7V35.6l15.2,15.9H146.4z"/>
		<path class="st0" d="M51.6,192c-2,0-3.6-1.6-3.6-3.6V107H29.9v83.7c0,10.7,8.7,19.4,19.4,19.4h44.5L76.5,192H51.6z"/>
	</g>
	<polyline class="st0" points="93.8,197.3 82.8,185.8 94.3,185.8 94.3,155.2 122.1,155.2 122.1,185.8 132.9,185.8 131.1,187.6 
		122.1,197.1 121.9,197.3 114.6,204.9 112.3,207.3 107.8,212 101.1,204.9 94.3,197.8 	"/>
</g>
</svg>
