<?xml version="1.0" encoding="utf-8"?>
<!-- Generator: Adobe Illustrator 22.0.0, SVG Export Plug-In . SVG Version: 6.00 Build 0)  -->
<svg version="1.1" id="Layer_1" xmlns="http://www.w3.org/2000/svg" xmlns:xlink="http://www.w3.org/1999/xlink" x="0px" y="0px"
	 viewBox="0 0 216 216" style="enable-background:new 0 0 216 216;" xml:space="preserve">
<style type="text/css">
	.st0{fill:#05226D;}
	.st1{fill:none;stroke:#05226D;stroke-miterlimit:10;}
	.st2{fill:none;stroke:#05226D;stroke-width:16;stroke-miterlimit:10;}
	.st3{fill:none;stroke:#05226D;stroke-width:13;stroke-miterlimit:10;}
</style>
<path class="st0" d="M169.7,115.3v73.2c0,5.8-4.7,10.5-10.5,10.5H27.5c-5.8,0-10.5-4.7-10.5-10.5V56.8c0-5.8,4.7-10.5,10.5-10.5H101
	c4.1,0,7.5-3.4,7.5-7.5v0c0-4.1-3.4-7.5-7.5-7.5H27.5C13.4,31.3,2,42.7,2,56.8v131.7C2,202.6,13.4,214,27.5,214h131.7
	c14.1,0,25.5-11.4,25.5-25.5v-73.2c0-4.1-3.4-7.5-7.5-7.5l0,0C173,107.8,169.7,111.2,169.7,115.3z"/>
<path class="st1" d="M87.1,108.7"/>
<path class="st2" d="M163.2,24.4c2.2-2.5,6.1-2.7,8.6-0.4l19.9,18c2.5,2.2,2.7,6.1,0.4,8.6L116,134.8l-34.6,9.4
	c-0.5,0.1-0.9-0.3-0.8-0.8l6.5-34.7L163.2,24.4z"/>
<path class="st3" d="M203.8,31.1l-4.2,4.6c-2.8,3.1-7.7,3.3-10.8,0.5L178.7,27c-3.1-2.8-3.3-7.7-0.5-10.8l4.2-4.6
	c2.8-3.1,7.7-3.3,10.8-0.5l10.1,9.3C206.5,23.2,206.7,28,203.8,31.1z"/>
</svg>
