<?xml version="1.0" encoding="utf-8"?>
<!-- Generator: Adobe Illustrator 22.0.0, SVG Export Plug-In . SVG Version: 6.00 Build 0)  -->
<svg version="1.1" id="Layer_1" xmlns="http://www.w3.org/2000/svg" xmlns:xlink="http://www.w3.org/1999/xlink" x="0px" y="0px"
	 viewBox="0 0 216 216" style="enable-background:new 0 0 216 216;" xml:space="preserve">
<style type="text/css">
	.st0{fill:#05226D;}
</style>
<path class="st0" d="M89.3,216c-2.5,0-5-0.7-7.2-2.1c-4.3-2.6-6.9-7.3-6.9-12.5v-99.6l-64-77.4C7.7,20,6.9,14.1,9.3,8.8
	c2.4-5,7.3-8.1,12.7-8.1h171.8c5.4,0,10.3,3.1,12.7,8.1c2.5,5.2,1.8,11.2-1.9,15.7l-64.4,78.6l1,78.8c0.1,5.5-3,10.7-7.8,13.1
	l-37.9,19.4C93.6,215.5,91.5,216,89.3,216z M26.5,17.1L88.3,92c2.2,2.6,3.3,5.9,3.3,9.3V198l33.2-17l-1-78.3c0-3.4,1.1-6.9,3.3-9.6
	L189.5,17H26.5V17.1z"/>
</svg>
