<?xml version="1.0" encoding="utf-8"?>
<!-- Generator: Adobe Illustrator 22.0.0, SVG Export Plug-In . SVG Version: 6.00 Build 0)  -->
<svg version="1.1" id="Layer_1" xmlns="http://www.w3.org/2000/svg" xmlns:xlink="http://www.w3.org/1999/xlink" x="0px" y="0px"
	 viewBox="0 0 216 216" style="enable-background:new 0 0 216 216;" xml:space="preserve">
<style type="text/css">
	.st0{fill:#FAD110;}
</style>
<path class="st0" d="M141.7,189c-3.8,15-17.4,26-33.6,26c-16.2,0-29.7-11-33.6-26H141.7z"/>
<path class="st0" d="M197.4,163.6c-0.5-3.5-2.2-7.7-6.5-11.1c-10-8-18-24.8-19.3-32c-0.9-5.5-1.4-27.3-1.5-37.8c0,0,0,0,0,0
	l-0.3-5.8l0-0.1c-2.6-29.3-24.7-52.8-53.1-57.1V10c0-3.4-2-6.4-4.9-7.9c-1.1-0.5-2.3-0.9-3.5-0.9h-0.1c-1.3,0.1-2.4,0.4-3.5,0.9
	c-2.9,1.5-4.9,4.5-4.9,7.9v9.6c-28.4,4.3-50.5,27.9-53.1,57.1l0,0.1l-0.3,5.8c0,0,0,0,0,0c-0.2,10.5-0.6,32.4-1.5,37.8
	c-1.3,7.3-9.3,24-19.3,32c-4.3,3.5-6,7.6-6.5,11.1c-0.2,1-0.4,2-0.4,3.1c0,1.8,0.3,3.5,0.9,5c0,0.1,0.1,0.2,0.1,0.2h0
	c2.1,5.3,7.3,9,13.2,9h150.6c6,0,11.1-3.8,13.2-9h0c0,0,0-0.1,0.1-0.2c0.6-1.6,0.9-3.3,0.9-5C197.7,165.7,197.6,164.6,197.4,163.6z"
	/>
</svg>
