<?xml version="1.0" encoding="utf-8"?>
<!-- Generator: Adobe Illustrator 22.0.0, SVG Export Plug-In . SVG Version: 6.00 Build 0)  -->
<svg version="1.1" id="Layer_1" xmlns="http://www.w3.org/2000/svg" xmlns:xlink="http://www.w3.org/1999/xlink" x="0px" y="0px"
	 viewBox="0 0 216 216" style="enable-background:new 0 0 216 216;" xml:space="preserve">
<style type="text/css">
	.st0{fill:#05226D;}
	.st1{fill:none;stroke:#05226D;stroke-width:15;stroke-miterlimit:10;}
</style>
<circle class="st0" cx="107.6" cy="73.3" r="42.7"/>
<path class="st1" d="M206.4,108.7c0,21.4-6.8,41.3-18.4,57.5c-17.9,25-47.3,41.3-80.4,41.3c-33,0-62.2-16.2-80.2-41
	c-11.8-16.3-18.7-36.2-18.7-57.8C8.8,54.1,53,9.8,107.6,9.8C162.2,9.8,206.4,54.1,206.4,108.7z"/>
<path class="st0" d="M187.9,166.2c-17.9,25-47.3,41.3-80.4,41.3c-33,0-62.2-16.2-80.2-41c19.3-22.9,48.2-37.5,80.4-37.5
	C139.9,129,168.6,143.4,187.9,166.2z"/>
</svg>
