<?xml version="1.0" encoding="utf-8"?>
<!-- Generator: Adobe Illustrator 22.0.0, SVG Export Plug-In . SVG Version: 6.00 Build 0)  -->
<svg version="1.1" id="Layer_1" xmlns="http://www.w3.org/2000/svg" xmlns:xlink="http://www.w3.org/1999/xlink" x="0px" y="0px"
	 viewBox="0 0 216 216" style="enable-background:new 0 0 216 216;" xml:space="preserve">
<style type="text/css">
	.st0{fill:#05226D;}
</style>
<path class="st0" d="M182,124.7c-1.3-0.1-2.7-0.2-4-0.2s-2.7,0.1-4,0.2c-19.2,2-34.2,18.3-34.2,38c0,1.8,0.1,3.6,0.4,5.3
	c0.4,2.8,1.1,5.5,2,8c5.4,14.5,19.4,24.8,35.8,24.8c21,0,38.2-17.1,38.2-38.2C216.2,143,201.2,126.7,182,124.7z M178,191.8
	c-11.3,0-21.1-6.4-25.9-15.8c-1.3-2.5-2.2-5.2-2.7-8c-0.3-1.7-0.5-3.5-0.5-5.3c0-14.7,11-26.9,25.2-28.9c1.3-0.2,2.6-0.3,4-0.3
	s2.7,0.1,4,0.3c14.2,2,25.2,14.2,25.2,28.9C207.2,178.8,194.1,191.8,178,191.8z"/>
<path class="st0" d="M178.1,183.7L178.1,183.7c-2.3,0-4.3-1.9-4.3-4.3v-33.3c0-2.3,1.9-4.3,4.3-4.3h0c2.3,0,4.2,1.9,4.2,4.3v33.3
	C182.3,181.8,180.4,183.7,178.1,183.7z"/>
<path class="st0" d="M158.1,166L158.1,166c-1.7-1.7-1.7-4.4,0-6l16.9-16.9c1.7-1.7,4.4-1.7,6,0l0,0c1.7,1.7,1.7,4.4,0,6L164.2,166
	C162.5,167.7,159.8,167.7,158.1,166z"/>
<path class="st0" d="M198,166L198,166c-1.7,1.7-4.4,1.7-6,0l-16.9-16.9c-1.7-1.7-1.7-4.4,0-6l0,0c1.7-1.7,4.4-1.7,6,0L198,160
	C199.7,161.7,199.7,164.4,198,166z"/>
<circle class="st0" cx="29.5" cy="120.3" r="4.2"/>
<path class="st0" d="M71.8,124.5H46.3c-2.3,0-4.2-1.9-4.2-4.2v0c0-2.3,1.9-4.2,4.2-4.2h25.5c2.3,0,4.2,1.9,4.2,4.2v0
	C76,122.6,74.1,124.5,71.8,124.5z"/>
<circle class="st0" cx="29.5" cy="146.3" r="4.2"/>
<path class="st0" d="M71.8,150.5H46.3c-2.3,0-4.2-1.9-4.2-4.2l0,0c0-2.3,1.9-4.2,4.2-4.2h25.5c2.3,0,4.2,1.9,4.2,4.2l0,0
	C76,148.6,74.1,150.5,71.8,150.5z"/>
<rect x="4.8" y="66" class="st0" width="173.3" height="8.5"/>
<path class="st0" d="M170.3,31.8H91.7c-0.5,0-1-0.2-1.4-0.5L81.1,23l-6.1-5.5c-1.9-1.6-4.3-2.5-6.7-2.5H13.1C6,15,0.3,20.8,0.3,27.9
	v133.7c0,7.9,6.5,14.4,14.4,14.4h137.5c-1.3-2.5-2.2-5.2-2.7-8H14.6c-3.5,0-6.4-2.9-6.4-6.4V27.9c0-2.7,2.2-4.9,4.9-4.9H64
	c2.5,0,4.9,0.9,6.7,2.6l13,11.6L87,40c0.4,0.3,0.9,0.5,1.4,0.5h81c2.5,0,4.6,2,4.6,4.6v88.7c1.3-0.2,2.6-0.3,4-0.3s2.7,0.1,4,0.3
	V43.5C182,37,176.7,31.8,170.3,31.8z"/>
</svg>
