<?xml version="1.0" encoding="utf-8"?>
<!-- Generator: Adobe Illustrator 22.0.0, SVG Export Plug-In . SVG Version: 6.00 Build 0)  -->
<svg version="1.1" id="Layer_1" xmlns="http://www.w3.org/2000/svg" xmlns:xlink="http://www.w3.org/1999/xlink" x="0px" y="0px"
	 viewBox="0 0 216 216" style="enable-background:new 0 0 216 216;" xml:space="preserve">
<style type="text/css">
	.st0{fill:#05226D;}
	.st1{fill:#05226D;stroke:#FFFFFF;stroke-width:13;stroke-miterlimit:10;}
</style>
<g>
	<line class="st0" x1="0" y1="108.3" x2="216" y2="108.3"/>
	<path class="st0" d="M2.8,112.4c-1.6-2.5-1.6-6.7,0-9.2c3.6-5.6,7.1-10.3,10.7-14.7C18,83,22.5,78.3,27,73.8c9-8.7,18-15.4,27-20.5
		c18-10.4,36-14.9,54-15c18,0,36,4.4,54,14.8c9,5.1,18,11.9,27,20.6c2.3,2.3,4.5,4.5,6.8,6.9c2.3,2.6,4.5,4.9,6.8,7.8
		c3.6,4.4,7.2,9.1,10.7,14.8c1.6,2.5,1.6,6.6,0,9.2c-3.6,5.7-7.2,10.4-10.7,14.8c-2.3,2.9-4.5,5.3-6.8,7.8c-2.3,2.5-4.5,4.6-6.8,6.9
		c-9,8.7-18,15.4-27,20.6c-18,10.4-36,14.8-54,14.8c-18-0.1-36-4.6-54-15c-9-5.2-18-11.9-27-20.5c-4.5-4.4-9-9.1-13.5-14.7
		C9.9,122.7,6.4,118,2.8,112.4z"/>
</g>
<circle class="st1" cx="108" cy="107.8" r="39.4"/>
</svg>
