<?xml version="1.0" encoding="utf-8"?>
<!-- Generator: Adobe Illustrator 22.0.0, SVG Export Plug-In . SVG Version: 6.00 Build 0)  -->
<svg version="1.1" id="Layer_1" xmlns="http://www.w3.org/2000/svg" xmlns:xlink="http://www.w3.org/1999/xlink" x="0px" y="0px"
	 viewBox="0 0 206.5 114.2" style="enable-background:new 0 0 206.5 114.2;" xml:space="preserve">
<style type="text/css">
	.st0{fill:#082157;}
	.st1{fill:none;stroke:#000000;stroke-width:10;stroke-miterlimit:10;}
</style>
<path class="st0" d="M203,48.5c-0.1-0.2-0.3-0.3-0.5-0.5c-12.9-12.7-39.4-35.1-71.8-44.1c-18-5.2-37.1-5.2-55.2,0
	C43.3,12.9,16.8,35.4,3.9,48c-5,4.8-5.2,12.7-0.5,17.7c0.1,0.2,0.3,0.3,0.5,0.5c16.4,16.1,54.7,48,99.4,48s82.9-31.9,99.3-48
	C207.6,61.4,207.8,53.5,203,48.5z M75.4,19.6c4.8-4.4,10.5-6.7,16.8-8c4.1-0.9,9.9-0.7,11,4.4c0.3,1.7,0.1,3.4-0.6,5
	c-0.4,0.8-1.2,1.4-2.1,1.6c-2,0.5-4,0-6,0.4c-2.4,0.5-4.6,1.3-6.7,2.4c-3.4,1.9-6.1,4.9-7.8,8.4c-2.2,4.7,0.7,10.8-4.2,14.2
	c-3.2,2.2-8.1,1.7-9.4-2.4C63.5,36.4,68.7,25.8,75.4,19.6z M188.6,64.5c-0.1,0.1-0.2,0.2-0.3,0.3c-14,13.8-46.6,40.9-84.6,41.1h-0.4
	c-38.2,0-70.9-27.3-85-41.1c-4.3-4.1-4.4-10.9-0.3-15.2c0.1-0.1,0.2-0.2,0.3-0.3c8.8-8.6,25-22.6,45.3-31.9c-0.2,0.4-0.4,0.7-0.6,1
	c-0.1,0.2-0.2,0.3-0.3,0.5C58.9,25.8,57,33.5,57,41.2c0,25.5,20.7,46.2,46.2,46.2c25.5,0,46.2-20.7,46.2-46.2c0-7.9-2-15.7-5.9-22.6
	h0c-0.1-0.1-0.2-0.3-0.2-0.4c-0.1-0.2-0.3-0.4-0.4-0.7c0,0,0,0,0,0c0,0,0,0,0,0c20.3,9.2,36.5,23.2,45.4,31.9
	C192.5,53.5,192.7,60.3,188.6,64.5z"/>
</svg>
