<?xml version="1.0" encoding="utf-8"?>
<!-- Generator: Adobe Illustrator 22.0.0, SVG Export Plug-In . SVG Version: 6.00 Build 0)  -->
<svg version="1.1" id="Layer_1" xmlns="http://www.w3.org/2000/svg" xmlns:xlink="http://www.w3.org/1999/xlink" x="0px" y="0px"
	 viewBox="0 0 206.5 114.2" style="enable-background:new 0 0 206.5 114.2;" xml:space="preserve">
<style type="text/css">
	.st0{fill:#082157;}
</style>
<g>
	<path class="st0" d="M173.3,58.9c-5.3-5.2-13.9-12.7-24.6-19.3l-6.3,3.7c9.2,5.6,16.5,12.1,21,16.5c2.9,2.8,3,7.5,0.2,10.4
		c-0.1,0.1-0.1,0.2-0.2,0.2c-9.6,9.5-32.1,28.2-58.2,28.3h-0.3c-13.7,0-26.4-5.1-36.7-11.3l-6.3,3.7c12.1,7.3,27,13.3,43,13.3
		c30.7,0,57.1-22,68.4-33c3.4-3.3,3.6-8.7,0.3-12.2C173.5,59.1,173.4,59,173.3,58.9z"/>
	<path class="st0" d="M104.9,86c17.6,0,31.8-14.3,31.8-31.8c0-2.4-0.3-4.7-0.8-7l-52,30.9C89.5,83.1,96.8,86,104.9,86z"/>
	<path class="st0" d="M182.2,3.7l-46.4,27.6c-4.7-2.3-9.7-4.3-15-5.7c-12.4-3.6-25.6-3.6-38,0c-22.3,6.2-40.5,21.6-49.4,30.4
		c-3.5,3.3-3.6,8.7-0.3,12.2c0.1,0.1,0.2,0.2,0.3,0.3c3.9,3.8,9.5,8.9,16.5,13.9l-33.6,20l4.9,8.3l37.6-22.4l6.3-3.7l15.7-9.3
		l52-30.9l6.5-3.9l6.3-3.7L187.2,12L182.2,3.7z M56.3,78.5c-5.4-4-9.8-8-12.9-11c-2.9-2.8-3-7.5-0.2-10.5c0.1-0.1,0.1-0.1,0.2-0.2
		c6.1-5.9,17.2-15.6,31.2-21.9c-0.1,0.2-0.3,0.5-0.4,0.7C74.1,35.7,74,35.8,74,36c-2.6,4.7-3.9,9.9-3.9,15.3c0,6,1.7,11.6,4.6,16.4
		L56.3,78.5z M101.5,37.3c-0.3,0.6-0.8,1-1.4,1.1c-1.4,0.3-2.8,0-4.1,0.3c-1.6,0.3-3.2,0.9-4.6,1.7c-2.3,1.3-4.2,3.3-5.3,5.8
		c-1.5,3.2,0.5,7.5-2.9,9.8c-2.2,1.5-5.6,1.2-6.5-1.6c-2-6.3,1.6-13.6,6.2-17.9c3.3-3,7.3-4.6,11.6-5.5c2.8-0.6,6.8-0.5,7.6,3
		C102.1,35,102,36.2,101.5,37.3z"/>
</g>
</svg>
