<?xml version="1.0" encoding="utf-8"?>
<!-- Generator: Adobe Illustrator 22.0.0, SVG Export Plug-In . SVG Version: 6.00 Build 0)  -->
<svg version="1.1" id="Layer_1" xmlns="http://www.w3.org/2000/svg" xmlns:xlink="http://www.w3.org/1999/xlink" x="0px" y="0px"
	 viewBox="0 0 141.7 141.7" style="enable-background:new 0 0 141.7 141.7;" xml:space="preserve">
<style type="text/css">
	.st0{fill:url(#SVGID_1_);}
	.st1{fill:#FAD110;}
	.st2{fill:url(#SVGID_2_);}
	.st3{fill:url(#SVGID_3_);}
	.st4{fill:#E6E7E8;}
	.st5{fill:#262262;}
	.st6{fill:#224193;}
</style>
<g>
	<g>
		<linearGradient id="SVGID_1_" gradientUnits="userSpaceOnUse" x1="70.8661" y1="140.5499" x2="70.8661" y2="1.1824">
			<stop  offset="0" style="stop-color:#EFF4F1"/>
			<stop  offset="0.5" style="stop-color:#788F8D"/>
			<stop  offset="1" style="stop-color:#EFF4F1"/>
		</linearGradient>
		<path class="st0" d="M140.6,32.4v76.9c0,17.2-14,31.2-31.2,31.2H32.4c-17.2,0-31.2-14-31.2-31.2V32.4c0-17.2,14-31.2,31.2-31.2
			h76.9C126.6,1.2,140.6,15.2,140.6,32.4z"/>
		<path class="st1" d="M134.4,32.3v77.1c0,13.8-11.2,25-25,25H32.3c-13.8,0-25-11.2-25-25V32.3c0-13.8,11.2-25,25-25h77.1
			C123.2,7.3,134.4,18.5,134.4,32.3z"/>
		<linearGradient id="SVGID_2_" gradientUnits="userSpaceOnUse" x1="83.3711" y1="83.3673" x2="13.6221" y2="13.6182">
			<stop  offset="0" style="stop-color:#FFFFFF"/>
			<stop  offset="1" style="stop-color:#504F4A"/>
		</linearGradient>
		<path class="st2" d="M134.4,31.3v1c0-13.8-11.2-25-25-25H32.3c-13.8,0-25,11.2-25,25v77.1c0,13.8,11.2,25,25,25h-1
			c-13.8,0-25-11.2-25-25V31.3c0-13.8,11.2-25,25-25h78.1C123.2,6.3,134.4,17.5,134.4,31.3z"/>
		<linearGradient id="SVGID_3_" gradientUnits="userSpaceOnUse" x1="54.6652" y1="54.6652" x2="132.5884" y2="132.5884">
			<stop  offset="0" style="stop-color:#FFFFFF"/>
			<stop  offset="1" style="stop-color:#504F4A"/>
		</linearGradient>
		<path class="st3" d="M141.7,31.2v79.3c0,17.2-14,31.2-31.2,31.2H31.2C14,141.7,0,127.8,0,110.5v-1.2c0,17.2,14,31.2,31.2,31.2
			h78.1c17.2,0,31.2-14,31.2-31.2V31.2c0-17.2-14-31.2-31.2-31.2h1.2C127.8,0,141.7,14,141.7,31.2z"/>
		<path class="st4" d="M140.6,31.2v1.2c0-17.2-14-31.2-31.2-31.2H32.4c-17.2,0-31.2,14-31.2,31.2v76.9c0,17.2,14,31.2,31.2,31.2
			h-1.2C14,140.5,0,126.6,0,109.3V31.2C0,14,14,0,31.2,0h78.1C126.6,0,140.6,14,140.6,31.2z"/>
		<path class="st4" d="M135.4,31.3v79.1c0,13.8-11.2,25-25,25H31.3c-13.8,0-25-11.2-25-25v-1c0,13.8,11.2,25,25,25h78.1
			c13.8,0,25-11.2,25-25V31.3c0-13.8-11.2-25-25-25h1C124.2,6.3,135.4,17.5,135.4,31.3z"/>
	</g>
	<path class="st5" d="M39.7,48.4c-12.4,0-22.5,10.1-22.5,22.5c0,6.3,2.6,12,6.8,16.1c4.1,4.2,9.8,6.8,16.1,6.8
		c12.4,0,22.5-10.1,22.5-22.5c0-6.3-2.6-12-6.8-16.1C51.7,51,46,48.4,39.7,48.4z M39.7,84.7c-3.7,0-7.1-1.5-9.6-3.8
		c-2.4-2.5-3.8-5.8-3.8-9.6c0-7.6,6.2-13.8,13.8-13.8c3.7,0,7.1,1.5,9.6,3.8c2.4,2.5,3.8,5.8,3.8,9.5C53.5,78.5,47.3,84.7,39.7,84.7
		z M46.2,63.9L36.1,74l-2.9-2.9c-1-0.9-2.5-0.9-3.4,0l-0.3,0.3c-1,1-1,2.5,0,3.4l4.6,4.6l0.7,0.7c0.9,1,2.5,1,3.4,0l12.1-12.1
		c0.9-1,0.9-2.5,0-3.4L50,64.3c0,0,0,0,0,0c0,0,0,0,0-0.1l-0.3-0.3C48.7,63,47.1,63,46.2,63.9z M85.5,66.3L101,50.7c0,0,0,0,0,0
		c0.4-0.5,0.3-1.1-0.1-1.6l-0.4-0.4c-0.2-0.2-0.5-0.4-0.9-0.4h-8c-0.3,0-0.6,0.1-0.9,0.4L77.3,62.3V50.7c0-0.5-0.2-1-0.5-1.3
		l-0.4-0.4c-0.3-0.3-0.8-0.5-1.3-0.5h-6.9c-1,0-1.9,0.8-1.9,1.9v41.1c0,0.5,0.2,0.9,0.5,1.2l0.2,0.2l0.3,0.3l0.2,0.2
		c0.3,0.3,0.7,0.5,1.2,0.5h6.9c1,0,1.9-0.8,1.9-1.9V74.5l1.1-1.1L92,92.9l0.4,0.4c0.2,0.2,0.5,0.4,0.9,0.4h10.7c1,0,1.6-1.2,1-2
		L85.5,66.3z M123,72C123,72,123,72,123,72c-0.1-0.1-0.3-0.3-0.4-0.4c-1.3-1.2-3.2-2.2-5.8-3.1v-7c0.9,0.1,1.6,0.3,2.1,0.6
		c0.1,0.1,0.2,0.1,0.3,0.2c0.2,0.2,0.4,0.5,0.5,0.8c0.2,0.5,0.5,0.8,0.7,1l0.4,0.4c0.1,0.1,0.1,0.1,0.2,0.2c0.3,0.2,0.7,0.3,1.2,0.3
		c0.5,0,1-0.2,1.4-0.5c0.4-0.3,0.6-0.7,0.6-1.2c0-0.7-0.3-1.3-1-1.8c-0.4-0.4-0.9-0.8-1.6-1.2c-1.3-0.7-2.9-1.1-4.8-1.2v-2.4
		l-0.4-0.4H114v2.9c-2.3,0.3-4.1,1.1-5.5,2.3c-1.4,1.2-2.1,2.7-2.1,4.4c0,1.5,0.6,2.9,1.9,4c0.1,0,0.1,0.1,0.2,0.1
		c0.1,0.1,0.2,0.2,0.3,0.3c1.2,1.1,2.9,2,5.3,2.8l0,8.2c-0.7,0-1.3-0.1-1.8-0.4c-0.2-0.1-0.5-0.2-0.7-0.4c-0.1-0.1-0.1-0.1-0.2-0.2
		c-0.1-0.1-0.2-0.3-0.4-0.6c-0.2-0.3-0.4-0.5-0.7-0.7c-0.6-0.7-1.2-1-2-1c-0.6,0-1.1,0.2-1.5,0.5c-0.4,0.3-0.6,0.7-0.6,1.1
		c0,0.6,0.3,1.2,0.9,1.7c0.4,0.4,0.9,0.8,1.6,1.2c1.3,0.6,3.1,1.1,5.3,1.2v3.9l0.4,0.4h2.3v-4.2c2.6-0.3,4.6-1.1,6-2.5
		c1.5-1.3,2.2-2.9,2.2-4.9C125,74.7,124.3,73.2,123,72z M114,67.5c-1-0.4-1.8-0.8-2.4-1.3c-0.4-0.5-0.6-1-0.6-1.6
		c0-0.7,0.3-1.3,0.9-1.8c0.5-0.4,1.3-0.8,2.2-1.1V67.5z M119.3,79.8c-0.6,0.5-1.5,0.9-2.6,1.1v-6.9c1.3,0.4,2.2,0.9,2.9,1.5
		c0.5,0.6,0.8,1.3,0.8,2C120.4,78.5,120,79.2,119.3,79.8z"/>
	<g>
		<path class="st6" d="M103.6,93.2H92.9c-0.3,0-0.6-0.1-0.9-0.4L78,72.9L76.9,74v17.3c0,1-0.8,1.9-1.9,1.9h-6.9
			c-1,0-1.9-0.8-1.9-1.9V50.2c0-1,0.8-1.9,1.9-1.9H75c1,0,1.9,0.8,1.9,1.9v12.4l14-14c0.2-0.2,0.5-0.4,0.9-0.4h8
			c1,0,1.6,1.2,0.9,1.9c0,0,0,0,0,0L85.1,65.8l19.6,25.3C105.3,92,104.7,93.2,103.6,93.2z"/>
		<path class="st6" d="M39.7,48.4c-12.4,0-22.5,10.1-22.5,22.5c0,12.4,10.1,22.5,22.5,22.5c12.4,0,22.5-10.1,22.5-22.5
			C62.2,58.4,52.1,48.4,39.7,48.4z M39.7,84.7c-7.6,0-13.8-6.2-13.8-13.8s6.2-13.8,13.8-13.8c7.6,0,13.8,6.2,13.8,13.8
			S47.3,84.7,39.7,84.7z"/>
		<g>
			<path class="st6" d="M49.9,67.7L37.8,79.8c-1,1-2.5,1-3.4,0l-0.3-0.3c-1-1-1-2.5,0-3.4l12.1-12.1c1-1,2.5-1,3.4,0l0.3,0.3
				C50.9,65.2,50.9,66.7,49.9,67.7z"/>
			<path class="st6" d="M29.4,74.8l5,5c1,1,2.5,1,3.4,0l0.3-0.3c1-1,1-2.5,0-3.4l-5-5c-1-1-2.5-1-3.4,0l-0.3,0.3
				C28.5,72.3,28.5,73.9,29.4,74.8z"/>
		</g>
		<path class="st6" d="M116.3,87.5H114v-4.2c-2.4-0.2-4.3-0.6-5.7-1.3c-1.4-0.7-2.1-1.5-2.1-2.5c0-0.4,0.2-0.8,0.6-1.1
			c0.4-0.3,0.9-0.5,1.5-0.5c0.9,0,1.7,0.5,2.3,1.4c0.2,0.3,0.3,0.4,0.4,0.6c0.4,0.5,0.8,0.8,1.3,1c0.5,0.2,1.1,0.3,1.8,0.4l0-8.4
			c-2.6-0.8-4.5-1.8-5.7-3c-1.2-1.1-1.9-2.5-1.9-4c0-1.7,0.7-3.2,2.1-4.4s3.2-2,5.5-2.3v-2.9h2.3v2.8c2.1,0.1,3.8,0.5,5.2,1.3
			c1.4,0.8,2.1,1.7,2.1,2.6c0,0.5-0.2,0.9-0.6,1.2c-0.4,0.3-0.8,0.5-1.4,0.5c-0.5,0-0.9-0.1-1.2-0.3c-0.3-0.2-0.6-0.6-0.9-1.2
			c-0.4-0.7-0.8-1.2-1.3-1.4c-0.5-0.3-1.2-0.5-2.1-0.6v7.3c2.8,0.9,4.9,2,6.3,3.2c1.3,1.2,2,2.7,2,4.3c0,1.9-0.7,3.6-2.2,4.9
			c-1.5,1.3-3.5,2.1-6,2.5V87.5z M114,67.5v-6.4c-1.1,0.3-2,0.7-2.6,1.2c-0.6,0.5-0.9,1.1-0.9,1.8c0,0.7,0.3,1.3,0.9,1.9
			C112,66.6,112.8,67.1,114,67.5z M116.3,81c1.3-0.2,2.3-0.6,3-1.2c0.7-0.6,1.1-1.4,1.1-2.3c0-0.8-0.3-1.6-1-2.3
			c-0.7-0.7-1.7-1.2-3.1-1.6V81z"/>
	</g>
</g>
</svg>
