<?xml version="1.0" encoding="utf-8"?>
<!-- Generator: Adobe Illustrator 22.0.0, SVG Export Plug-In . SVG Version: 6.00 Build 0)  -->
<svg version="1.1" id="Layer_1" xmlns="http://www.w3.org/2000/svg" xmlns:xlink="http://www.w3.org/1999/xlink" x="0px" y="0px"
	 viewBox="0 0 216 216" style="enable-background:new 0 0 216 216;" xml:space="preserve">
<style type="text/css">
	.st0{fill:#224193;}
	.st1{fill:none;stroke:#224193;stroke-miterlimit:10;}
</style>
<path class="st0" d="M154.4,3.2H61.6c-6.6,0-12,5.4-12,12v185.6c0,6.6,5.4,12,12,12h92.9c6.6,0,12-5.4,12-12V15.2
	C166.4,8.6,161,3.2,154.4,3.2z M86.7,11h43v8.3h-43V11z M107.3,209.7c-5.7,0-10.3-4.6-10.3-10.3c0-5.7,4.6-10.3,10.3-10.3
	c5.7,0,10.3,4.6,10.3,10.3C117.7,205,113,209.7,107.3,209.7z M158.3,184.3H57V27.7h101.3V184.3z"/>
<line class="st1" x1="51.7" y1="184.3" x2="163.3" y2="184.3"/>
<circle class="st0" cx="107.5" cy="199.3" r="3.7"/>
</svg>
